<?xml version="1.0" encoding="UTF-8" standalone="no"?>
<svg
   xmlns:dc="http://purl.org/dc/elements/1.1/"
   xmlns:cc="http://creativecommons.org/ns#"
   xmlns:rdf="http://www.w3.org/1999/02/22-rdf-syntax-ns#"
   xmlns:svg="http://www.w3.org/2000/svg"
   xmlns="http://www.w3.org/2000/svg"
   xmlns:sodipodi="http://sodipodi.sourceforge.net/DTD/sodipodi-0.dtd"
   xmlns:inkscape="http://www.inkscape.org/namespaces/inkscape"
   viewBox="0 0 22 22"
   version="1.1"
   id="svg8"
   sodipodi:docname="focus.svg"
   inkscape:version="0.92.1 r15371">
  <metadata
     id="metadata12">
    <rdf:RDF>
      <cc:Work
         rdf:about="">
        <dc:format>image/svg+xml</dc:format>
        <dc:type
           rdf:resource="http://purl.org/dc/dcmitype/StillImage" />
      </cc:Work>
    </rdf:RDF>
  </metadata>
  <sodipodi:namedview
     pagecolor="#ffffff"
     bordercolor="#666666"
     borderopacity="1"
     objecttolerance="10"
     gridtolerance="10"
     guidetolerance="10"
     inkscape:pageopacity="0"
     inkscape:pageshadow="2"
     inkscape:window-width="1405"
     inkscape:window-height="885"
     id="namedview10"
     showgrid="false"
     inkscape:zoom="11.51"
     inkscape:cx="7.548122"
     inkscape:cy="1.6189851"
     inkscape:current-layer="svg8"
     inkscape:window-x="50"
     inkscape:window-y="0"
     inkscape:window-maximized="0" />
  <defs
     id="defs3051">
    <style
       type="text/css"
       id="current-color-scheme">
      .ColorScheme-Text {
        color:#f2f2f2;
      }
      .ColorScheme-Highlight {
        color:#3daee9;
      }
      </style>
  </defs>
  <path
     style="color:#f2f2f2;fill:currentColor;fill-opacity:1;stroke:none"
     d="M 3,3 V 4 7 H 4 V 4 H 7 V 3 H 4 Z m 7,0 V 6 H 7 6 v 7 H 3 v 1 h 7 v 5 h 1 v -5 h 8 V 13 H 16 V 6 H 15 11 V 3 Z m 5,0 v 1 h 3 v 3 h 1 V 4 3 H 18 Z M 6,6 h 4 v 7 H 6 Z m 5,0 h 5 v 7 h -5 z m -8,9 v 3 1 H 7 V 18 H 4 v -3 z m 15,0 v 3 h -3 v 1 h 4 v -1 -3 z"
     class="ColorScheme-Text"
     id="path4"
     inkscape:connector-curvature="0" />
  <path
     style="color:#f2f2f2;fill:currentColor;fill-opacity:1;stroke:none"
     d="M 11,5 C 10.09558,5 9.3630583,5.6034836 8.7695312,6.3652344 8.1760043,7.1269864 7.685626,8.095759 7.28125,9.056641 6.472498,10.978403 6.0136719,12.882813 6.0136719,12.882812 l 0.9726562,0.234376 c 0,0 0.4474039,-1.845591 1.2167969,-3.673829 C 8.587822,8.529241 9.0544716,7.6230136 9.5566406,6.9785156 10.056781,6.3366186 10.556129,6.0065983 10.994141,6.0039062 c 0.4208,0.01378 0.782978,0.1849888 1.15625,0.5429688 0.375823,0.360428 0.739876,0.9081416 1.076171,1.587891 0.643616,1.300928 1.184369,3.072232 1.722657,4.865234 h 1.046875 c -0.0052,-0.0174 -0.01041,-0.03338 -0.01563,-0.05078 C 15.41832,11.074493 14.857287,9.175514 14.123047,7.6914062 13.755927,6.9493522 13.345582,6.307366 12.841797,5.8242188 12.338012,5.3410719 11.715369,5.0192827 11.013672,5 h -0.0059 z"
     class="ColorScheme-Text"
     id="path6"
     inkscape:connector-curvature="0" />
</svg>
