<?xml version="1.0" encoding="UTF-8" standalone="no"?>
<svg
   viewBox="0 0 22 22"
   version="1.1"
   id="svg6"
   sodipodi:docname="gear.svg"
   inkscape:version="1.1.2 (0a00cf5339, 2022-02-04)"
   xmlns:inkscape="http://www.inkscape.org/namespaces/inkscape"
   xmlns:sodipodi="http://sodipodi.sourceforge.net/DTD/sodipodi-0.dtd"
   xmlns="http://www.w3.org/2000/svg"
   xmlns:svg="http://www.w3.org/2000/svg">
  <sodipodi:namedview
     id="namedview8"
     pagecolor="#ffffff"
     bordercolor="#666666"
     borderopacity="1.0"
     inkscape:pageshadow="2"
     inkscape:pageopacity="0.0"
     inkscape:pagecheckerboard="0"
     showgrid="false"
     inkscape:zoom="29.272727"
     inkscape:cx="10.982919"
     inkscape:cy="11.068323"
     inkscape:window-width="1876"
     inkscape:window-height="1171"
     inkscape:window-x="44"
     inkscape:window-y="0"
     inkscape:window-maximized="1"
     inkscape:current-layer="svg6" />
  <defs
     id="defs3051">
    <style
       type="text/css"
       id="current-color-scheme">
      .ColorScheme-Text {
        color:#232629
      }
      </style>
  </defs>
  <path
     style="fill:currentColor"
     d="M 10 3 L 10 5.0898438 A 6 6 0 0 0 7.5332031 6.1191406 L 6.0507812 4.6367188 L 4.6367188 6.0507812 L 6.1152344 7.5292969 A 6 6 0 0 0 5.0859375 10 L 3 10 L 3 12 L 5.0898438 12 A 6 6 0 0 0 6.1191406 14.466797 L 4.6367188 15.949219 L 6.0507812 17.363281 L 7.5292969 15.884766 A 6 6 0 0 0 10 16.914062 L 10 19 L 12 19 L 12 16.910156 A 6 6 0 0 0 14.466797 15.880859 L 15.949219 17.363281 L 17.363281 15.949219 L 15.884766 14.470703 A 6 6 0 0 0 16.914062 12 L 19 12 L 19 10 L 16.910156 10 A 6 6 0 0 0 15.880859 7.5332031 L 17.363281 6.0507812 L 15.949219 4.6367188 L 14.470703 6.1152344 A 6 6 0 0 0 12 5.0859375 L 12 3 L 10 3 z M 11 7 A 4 4 0 0 1 13.869141 8.2128906 A 4 4 0 0 1 15 11 A 4 4 0 0 1 13.787109 13.869141 A 4 4 0 0 1 11 15 A 4 4 0 0 1 8.1308594 13.787109 A 4 4 0 0 1 7 11 A 4 4 0 0 1 8.2128906 8.1308594 A 4 4 0 0 1 11 7 z "
     class="ColorScheme-Text"
     id="path4" />
  <path
     style="fill:#1a1a1a;fill-opacity:1;stroke-width:0.116149;stroke-dasharray:0.116149, 0.116149;stroke-opacity:0.197987"
     d="M 10.026398,17.9406 V 16.904493 L 9.7445652,16.845128 C 9.1167334,16.712885 8.3986776,16.417983 7.8250297,16.056786 L 7.5196243,15.864488 6.7829088,16.600633 6.0461937,17.336777 5.3547082,16.645292 4.6632228,15.953806 5.4028338,15.213622 6.1424447,14.473437 5.9708686,14.205663 C 5.5784922,13.593291 5.2693547,12.835567 5.1403684,12.170031 L 5.1022989,11.973602 H 4.0627954 3.0232919 V 11 10.026398 H 4.0593996 5.0955074 L 5.1550739,9.7445652 C 5.2902337,9.1050724 5.5769996,8.4066461 5.9432136,7.8250297 L 6.1355116,7.5196243 5.3993672,6.7829088 4.6632228,6.0461937 5.3547082,5.3547082 6.0461937,4.6632228 6.7863783,5.4028338 7.5265628,6.1424447 7.8018409,5.9658611 C 8.3658806,5.6040447 9.219926,5.2561814 9.8299689,5.1397794 L 10.026398,5.1022989 V 4.0627954 3.0232919 H 11 11.973602 v 1.0361077 1.0361078 l 0.281833,0.059566 c 0.639493,0.1351598 1.337919,0.4219257 1.919535,0.7881397 l 0.305406,0.192298 0.736715,-0.7361444 0.736715,-0.7361444 0.691486,0.6914854 0.691485,0.6914855 -0.739611,0.7401846 -0.739611,0.7401845 0.176584,0.2752781 c 0.361816,0.5640397 0.70968,1.4180851 0.826082,2.028128 l 0.03748,0.1964296 h 1.039504 1.039503 V 11 11.973602 H 17.9406 16.904493 l -0.05936,0.281833 c -0.132243,0.627832 -0.427145,1.345887 -0.788342,1.919535 l -0.192298,0.305406 0.736145,0.736715 0.736144,0.736715 -0.691485,0.691486 -0.691486,0.691485 -0.740184,-0.739611 -0.740185,-0.739611 -0.267774,0.171576 c -0.612372,0.392377 -1.370096,0.701514 -2.035632,0.830501 l -0.196429,0.03807 v 1.039504 1.039503 H 11 10.026398 Z m 1.594372,-2.977716 c 2.434868,-0.394906 3.9421,-2.834266 3.201533,-5.1814797 -0.5903,-1.8709422 -2.511479,-3.0575696 -4.443073,-2.7442886 -2.4348677,0.3949062 -3.9421,2.8342665 -3.2015329,5.1814803 0.5902436,1.870765 2.5116621,3.05754 4.4430729,2.744288 z"
     id="path6086" />
  <path
     style="fill:#1a1a1a;fill-opacity:1;stroke-width:0.116149;stroke-dasharray:0.116149, 0.116149;stroke-opacity:0.197987"
     d="m 10.026398,17.9406 v -1.036107 l -0.2791982,-0.06 C 9.119867,16.709689 8.3131041,16.37429 7.7680511,16.021697 L 7.5217488,15.862366 6.7839712,16.599571 6.0461937,17.336777 5.3547082,16.645292 4.6632228,15.953806 5.4028338,15.213622 6.1424447,14.473437 5.9607089,14.190127 C 5.6060516,13.637248 5.262462,12.790708 5.1408014,12.170031 L 5.1022989,11.973602 H 4.0627954 3.0232919 V 11 10.026398 H 4.0593996 5.0955074 L 5.1548714,9.7445652 C 5.2855424,9.1242025 5.6201874,8.3235903 5.9853253,7.7577688 L 6.1376345,7.5217488 5.4004286,6.7839712 4.6632228,6.0461937 5.3547082,5.3547082 6.0461937,4.6632228 6.7863783,5.4028338 7.5265628,6.1424447 7.8072807,5.9623717 C 8.3535708,5.6119412 9.2284855,5.2563168 9.8299689,5.1402148 L 10.026398,5.1022989 V 4.0627954 3.0232919 H 11 11.973602 v 1.0361077 1.0361078 l 0.281833,0.059364 c 0.62621,0.1319028 1.416785,0.4613443 1.977405,0.8240077 l 0.245411,0.1587554 0.737778,-0.7372059 0.737777,-0.7372058 0.691486,0.6914854 0.691485,0.6914855 -0.739611,0.7401846 -0.739611,0.7401845 0.180073,0.2807179 c 0.350431,0.5462901 0.706055,1.4212048 0.822157,2.0226882 l 0.03792,0.1964291 h 1.039504 1.039503 V 11 11.973602 H 17.9406 16.904493 l -0.06,0.279198 c -0.134807,0.627333 -0.470206,1.434096 -0.822799,1.979149 l -0.159331,0.246302 0.737205,0.737778 0.737206,0.737777 -0.691485,0.691486 -0.691486,0.691485 -0.740184,-0.739611 -0.740185,-0.739611 -0.28331,0.181736 c -0.552879,0.354657 -1.399419,0.698247 -2.020096,0.819908 l -0.196429,0.0385 v 1.039504 1.039503 H 11 10.026398 Z m 1.604651,-2.979378 c 2.178409,-0.353281 3.66107,-2.386535 3.332044,-4.569415 C 14.63373,8.2066972 12.549081,6.6852189 10.368951,7.0387784 8.1839067,7.3931348 6.6863968,9.458184 7.0387784,11.631049 c 0.3540227,2.182986 2.4214522,3.682222 4.5922706,3.330173 z"
     id="path6125" />
  <path
     style="fill:#4d4d4d;fill-opacity:1;stroke-width:0.116149;stroke-dasharray:0.116149, 0.116149;stroke-opacity:0.197987"
     d="M 10.026398,17.942454 V 16.9082 L 9.625,16.814646 C 8.9885643,16.666314 8.2022812,16.322403 7.6738784,15.96125 L 7.5247758,15.859341 6.7854846,16.598059 6.0461937,17.336777 5.3547082,16.645292 4.6632228,15.953806 5.4009287,15.215528 6.1386346,14.47725 5.9584662,14.190489 C 5.6009185,13.621404 5.2537699,12.771836 5.1398507,12.187112 l -0.041597,-0.21351 H 4.0607728 3.0232919 V 11 10.026398 H 4.0593996 5.0955074 L 5.1548714,9.7445652 C 5.2871156,9.1167334 5.582017,8.3986776 5.9432136,7.8250297 L 6.1355116,7.5196243 5.3993672,6.7829088 4.6632228,6.0461937 5.3547082,5.3547082 6.0461937,4.6632228 6.7863783,5.4028338 7.5265628,6.1424447 7.80828,5.9617307 C 8.3451039,5.6173724 9.1451165,5.2848852 9.7492259,5.1550686 L 10.026398,5.0955074 V 4.0593996 3.0232919 H 11 11.973602 v 1.0361077 1.0361078 l 0.281833,0.059364 c 0.627832,0.1322442 1.345887,0.4271456 1.919535,0.7883422 l 0.305406,0.192298 0.736715,-0.7361444 0.736715,-0.7361444 0.691486,0.6914854 0.691485,0.6914855 -0.737706,0.738278 -0.737706,0.738278 0.180032,0.2867618 c 0.350697,0.558606 0.674953,1.3413526 0.803534,1.9397144 l 0.05956,0.2771721 H 17.9406 18.976708 V 11 11.973602 H 17.9406 16.904493 l -0.05936,0.281833 C 16.7137,12.879397 16.417777,13.599513 16.05632,14.17497 l -0.191832,0.305406 0.736145,0.736715 0.736144,0.736715 -0.691485,0.691486 -0.691486,0.691485 -0.738278,-0.737706 -0.738278,-0.737706 -0.273586,0.171461 c -0.594663,0.372683 -1.320132,0.674023 -1.948229,0.809241 l -0.281833,0.06067 v 1.036984 1.036984 H 11 10.026398 Z m 1.767013,-3.010211 c 1.420361,-0.308553 2.556052,-1.317789 3.01316,-2.677652 0.148213,-0.440924 0.184235,-0.686227 0.184235,-1.254591 0,-0.580888 -0.03599,-0.816136 -0.199296,-1.3026104 C 14.344435,8.3655762 13.147651,7.335184 11.717391,7.0506738 11.581671,7.0236763 11.271441,7.0031056 11,7.0031056 c -0.659205,0 -1.1206059,0.1010917 -1.7151384,0.3757829 C 8.3346043,7.8179343 7.5206119,8.7382856 7.1958744,9.74083 7.0443607,10.208589 7.0031056,10.478069 7.0031056,11 c 0,0.84646 0.2016204,1.523779 0.6609852,2.220497 0.1834462,0.278233 0.6234844,0.748718 0.8933626,0.955175 0.5390379,0.412365 1.2047771,0.694047 1.8966516,0.802496 0.283922,0.0445 1.042829,0.01848 1.339306,-0.04593 z"
     id="path6164" />
</svg>
