<?xml version="1.0" encoding="UTF-8" standalone="no"?>
<svg
   xmlns:dc="http://purl.org/dc/elements/1.1/"
   xmlns:cc="http://creativecommons.org/ns#"
   xmlns:rdf="http://www.w3.org/1999/02/22-rdf-syntax-ns#"
   xmlns:svg="http://www.w3.org/2000/svg"
   xmlns="http://www.w3.org/2000/svg"
   xmlns:sodipodi="http://sodipodi.sourceforge.net/DTD/sodipodi-0.dtd"
   xmlns:inkscape="http://www.inkscape.org/namespaces/inkscape"
   viewBox="0 0 22 22"
   version="1.1"
   id="svg6"
   sodipodi:docname="histdec.svg"
   inkscape:version="1.0.1 (3bc2e813f5, 2020-09-07)">
  <metadata
     id="metadata10">
    <rdf:RDF>
      <cc:Work
         rdf:about="">
        <dc:format>image/svg+xml</dc:format>
        <dc:type
           rdf:resource="http://purl.org/dc/dcmitype/StillImage" />
        <dc:title></dc:title>
      </cc:Work>
    </rdf:RDF>
  </metadata>
  <sodipodi:namedview
     pagecolor="#ffffff"
     bordercolor="#666666"
     borderopacity="1"
     objecttolerance="10"
     gridtolerance="10"
     guidetolerance="10"
     inkscape:pageopacity="0"
     inkscape:pageshadow="2"
     inkscape:window-width="1772"
     inkscape:window-height="1116"
     id="namedview8"
     showgrid="false"
     inkscape:zoom="32.5"
     inkscape:cx="11"
     inkscape:cy="11"
     inkscape:window-x="44"
     inkscape:window-y="0"
     inkscape:window-maximized="0"
     inkscape:current-layer="layer1"
     inkscape:document-rotation="0" />
  <defs
     id="defs3051">
    <style
       type="text/css"
       id="current-color-scheme">
      .ColorScheme-Text {
        color:#4d4d4d;
      }
      </style>
  </defs>
  <path
     style="fill:#4d4d4d;fill-opacity:1;stroke:none"
     d="M 4 3 L 4 17 L 3 17 L 3 18 L 4 18 L 4 19 L 5 19 L 5 18 L 19 18 L 19 17 L 18 17 L 18 16 L 17 16 L 16 16 L 16 15 L 15 15 L 14 15 L 14 14 L 13 14 L 13 15 L 12 15 L 12 14 L 11 14 L 11 7 L 10 7 L 10 3 L 9 3 L 9 5 L 8 5 L 8 8 L 7 8 L 7 10 L 6 10 L 6 13 L 5 13 L 5 3 L 4 3 z "
     class="ColorScheme-Text"
     id="path4" />
  <g
     inkscape:groupmode="layer"
     id="layer1"
     inkscape:label="arrow">
    <path
       sodipodi:type="star"
       style="fill:#000000;fill-opacity:1;fill-rule:nonzero;stroke:none;stroke-width:3.4;stroke-miterlimit:4;stroke-dasharray:3.4, 3.4;stroke-dashoffset:0;stroke-opacity:0.197987"
       id="path844"
       sodipodi:sides="3"
       sodipodi:cx="17.683411"
       sodipodi:cy="6.9680748"
       sodipodi:r1="1.8702368"
       sodipodi:r2="0.93511838"
       sodipodi:arg1="2.0903325"
       sodipodi:arg2="3.1375301"
       inkscape:flatsided="true"
       inkscape:rounded="0"
       inkscape:randomized="0"
       d="M 16.75488,8.591533 16.74172,5.3522146 19.553632,6.9604768 Z"
       inkscape:transform-center-x="0.44578754"
       inkscape:transform-center-y="0.0087960038"
       transform="matrix(-0.96020073,0,0,2.3153019,35.075413,-6.6919928)" />
    <path
       sodipodi:type="star"
       style="fill:#000000;fill-opacity:1;fill-rule:nonzero;stroke:none;stroke-width:3.4;stroke-miterlimit:4;stroke-dasharray:3.4, 3.4;stroke-dashoffset:0;stroke-opacity:0.197987"
       id="path844-6"
       sodipodi:sides="3"
       sodipodi:cx="17.683411"
       sodipodi:cy="6.9680748"
       sodipodi:r1="1.8702368"
       sodipodi:r2="0.93511838"
       sodipodi:arg1="2.0903325"
       sodipodi:arg2="3.1375301"
       inkscape:flatsided="true"
       inkscape:rounded="0"
       inkscape:randomized="0"
       d="M 16.75488,8.591533 16.74172,5.3522146 19.553632,6.9604768 Z"
       inkscape:transform-center-x="-0.4457884"
       inkscape:transform-center-y="0.0087961001"
       transform="matrix(0.96020073,0,0,2.3153019,-15.075411,-6.6919927)" />
  </g>
</svg>
