<?xml version="1.0" encoding="UTF-8" standalone="no"?>
<svg
   id="svg6"
   version="1.1"
   viewBox="0 0 22 22"
   sodipodi:docname="zoom-hist.svg"
   inkscape:version="1.2.2 (b0a8486541, 2022-12-01)"
   xmlns:inkscape="http://www.inkscape.org/namespaces/inkscape"
   xmlns:sodipodi="http://sodipodi.sourceforge.net/DTD/sodipodi-0.dtd"
   xmlns="http://www.w3.org/2000/svg"
   xmlns:svg="http://www.w3.org/2000/svg">
  <sodipodi:namedview
     id="namedview6"
     pagecolor="#ffffff"
     bordercolor="#666666"
     borderopacity="1.0"
     inkscape:showpageshadow="2"
     inkscape:pageopacity="0.0"
     inkscape:pagecheckerboard="0"
     inkscape:deskcolor="#d1d1d1"
     showgrid="false"
     inkscape:zoom="45.045455"
     inkscape:cx="9.5459132"
     inkscape:cy="11"
     inkscape:window-width="1880"
     inkscape:window-height="1172"
     inkscape:window-x="40"
     inkscape:window-y="0"
     inkscape:window-maximized="1"
     inkscape:current-layer="layer1" />
  <defs
     id="defs3051">
    <style
       type="text/css"
       id="current-color-scheme">
        .ColorScheme-Text {            color:#4d4d4d;        }
    </style>
  </defs>
  <path
     id="path347"
     d="m11 3a8 8 0 0 0-8 8 8 8 0 0 0 8 8 8 8 0 0 0 4.892578-1.693359l3.400391 3.40039a1 1 0 0 0 1.414062 0 1 1 0 0 0 0-1.414062l-3.40039-3.400391a8 8 0 0 0 1.693359-4.892578 8 8 0 0 0-8-8zm0 1a7 7 0 0 1 7 7 7 7 0 0 1-7 7 7 7 0 0 1-7-7 7 7 0 0 1 7-7zm-1 3v3h-3v2h3v3h2v-3h3v-2h-3v-3h-2z"
     class="ColorScheme-Text"
     fill="currentColor"
     stroke-linecap="square"
     stroke-width="2"
     style="paint-order:markers stroke fill" />
  <g
     inkscape:groupmode="layer"
     id="layer1"
     inkscape:label="Layer 1">
    <path
       style="opacity:0.3;fill:none;fill-rule:evenodd;stroke:#000000;stroke-width:1px;stroke-linecap:butt;stroke-linejoin:miter;stroke-opacity:1"
       d="M 1.225524,1.3421003 1.1501681,20.109234 16.821458,19.895023"
       id="path1575" />
    <path
       style="opacity:0.3;fill:none;fill-rule:evenodd;stroke:#000000;stroke-width:1px;stroke-linecap:butt;stroke-linejoin:miter;stroke-opacity:1"
       d="m 1.6927014,8.4759084 1.1709546,0.00333 0.081107,-5.8689171 1.4933768,-0.00198 -0.00877,9.8186057 1.6502435,-0.0046 0.00139,2.53807 2.7835504,-0.01501 -0.00989,1.949002 4.5764633,-0.0222 0.05325,2.604239"
       id="path1579" />
  </g>
</svg>
